<svg id="Layer_1" data-name="Layer 2" xmlns="http://www.w3.org/2000/svg" viewBox="0 0 3328.79 3843.75"><defs><style>.cls-1{fill:#38aecc}.cls-2{fill:#022f40}.cls-3{fill:#fff}.cls-4{fill:#5f5}</style></defs><title>Devathon Logo</title><g id="Background_Badge" data-name="Background Badge"><path id="Hexagon_BG" data-name="Hexagon BG" class="cls-1" d="M1664.39 0l1664.39 960.94v1921.87l-1664.39 960.94L0 2882.81V960.94L1664.39 0z"/><path id="Hexagon" class="cls-2" d="M1664.39 121.88l1558.85 900v1800l-1558.85 900-1558.84-900v-1800l1558.84-900z"/></g><g id="Cup"><path id="Base" class="cls-1" d="M931.09 1088.94l293.35 1466.46-146.68 146.52 146.68 146.6-146.68 294.18 73.34 74.18h1026.74l73.34-74.4-146.67-293.7 146.67-146.85-146.67-146.76 293.35-1466.37-440.03 147.08h-586.71l-440.03-146.94z"/><g id="All_Brackets" data-name="All Brackets"><g id="Ang_Brackets" data-name="Ang Brackets"><path class="cls-3" d="M1322.13 2554.88l-146.77 147.1 146.55 146.9h-48.76l-146.55-146.9 146.78-147.1h48.75zM2202.36 2701.69l-146.94 147.19h-48.76l146.94-147.19-146.94-146.81h48.76l146.94 146.81z"/></g><g id="Ang_Brackets_2" data-name="Ang Brackets 2"><path class="cls-3" d="M1419.64 2554.88l-146.77 147.1 146.56 146.9h-48.76l-146.56-146.9 146.78-147.1h48.75zM2104.85 2701.69l-146.94 147.19h-48.76l146.94-147.19-146.94-146.81h48.76l146.94 146.81z"/></g><g id="Ang_Brackets_3" data-name="Ang Brackets 3"><path class="cls-3" d="M1517.15 2554.88l-146.77 147.1 146.56 146.9h-48.76l-146.55-146.9 146.77-147.1h48.75zM2007.34 2701.69l-146.94 147.19h-48.76l146.94-147.19-146.94-146.81h48.76l146.94 146.81z"/></g><path id="brackets_center" data-name="brackets center" class="cls-3" d="M1762.89 2554.88h-196.98l-146.77 147.11 146.55 146.89h197.2l146.93-147.19-146.93-146.81z"/></g><g id="Side_lines" data-name="Side lines"><path class="cls-3" d="M1586.43 2533.89a12 12 0 0 1-11.72-9.6l-216.83-1083.83a12 12 0 0 1 11.72-14.3 12 12 0 0 1 11.72 9.61l216.82 1083.82a12 12 0 0 1-11.71 14.3zM2629 1426.16a12 12 0 0 1 11.72 14.3l-216.79 1083.82a12 12 0 0 1-23.68-2.33 12.26 12.26 0 0 1 .23-2.36l216.82-1083.82a12 12 0 0 1 11.72-9.61z" transform="translate(-335.61 -78.13)"/></g><g id="Top"><path id="Top_Brim_White" data-name="Top Brim White" class="cls-3" d="M2398.39 1088.68V942l-436.66 149.88h-586.71L930.39 942v146.68l444.63 151.2h586.71l436.66-151.2z"/><path id="Top_Brim" data-name="Top Brim" class="cls-1" d="M2398.39 1052.01V905.33l-436.66 151.55h-586.71L930.39 905.33v146.68l444.63 150.87h586.71l436.66-150.87z"/><path id="Top_Brim-2" data-name="Top Brim" class="cls-3" d="M2398.39 1003.25V856.58l-436.66 151.3h-586.71l-444.63-151.3v146.67l444.63 150.63h586.71l436.66-150.63z"/><path id="Top_Brim-3" data-name="Top Brim" class="cls-1" d="M2398.39 966.69V820.01l-436.66 151.87h-586.71L930.39 820.01v146.68l444.63 151.19h586.71l436.66-151.19z"/><path id="Top_Brim-4" data-name="Top Brim" class="cls-3" d="M2398.39 917.93V771.25l-436.66 151.63h-586.71L930.39 771.25v146.68l444.63 151.95h586.71l436.66-151.95z"/><path id="Top_Brim-5" data-name="Top Brim" class="cls-1" d="M2398.39 893.55V746.88l-436.66 152h-586.71l-444.63-152v146.67l444.63 151.33h586.71l436.66-151.33z"/></g><g id="Text"><g id="Ribbon"><path class="cls-4" d="M299.39 2285.88h2730v91h-2730zM299.39 1466.88h2730v91h-2730z"/><path class="cls-2" d="M299.39 1557.88h2730v728h-2730z"/></g><g id="DEVATHON"><path class="cls-4" d="M582.76 1779H707c123.56 0 210.58 61.42 210.58 215s-87 219-203.94 219H582.76v-434zM701 2120.83c55.14 0 99.64-25.37 99.64-126.83s-44.5-122.84-99.64-122.84h-4v249.66h4zM956.08 1779h293.62v96.13h-179.36v68.09h152.79v96.13h-152.79v77.44h186v96.13H956.08V1779zM1263 1779h120.9l45.17 189.59c12 46.06 19.93 90.79 31.89 137.52h2.66c12-46.73 20.59-91.46 31.88-137.52l43.82-189.59h116.92l-127.54 433.95h-138.18zM1750.56 1779h138.17l130.2 433.91H1898l-21.26-92.12h-118.2l-21.26 92.12h-116.92zm28.56 253h77.06l-6.64-30c-9.3-41.39-21.92-93.46-31.22-137.52h-2.66c-9.3 44.06-20.59 96.13-29.89 137.52zM2122.56 1875.17h-124.22V1779H2361v96.13h-124.18v337.78h-114.26v-337.74zM2379 1779h114.26v161.55h93V1779h114.26v433.91h-114.29v-172.19h-93v172.23H2379V1779zM2733.7 1999.33c0-144.86 67.09-217.62 166.07-217.62s166.07 72.76 166.07 217.62S2998.75 2221 2899.77 2221s-166.07-76.81-166.07-221.67zm231.17 0c0-105.47-29.89-129.51-65.1-129.51s-65.1 24-65.1 129.51 29.89 133.51 65.1 133.51 65.1-28.04 65.1-133.51zm-118.24 0c0-32 22.59-53.41 53.14-53.41s53.14 21.36 53.14 53.41-22.59 53.4-53.14 53.4-53.14-21.36-53.14-53.4zM3100.39 1779H3216l72.41 193.59 35.21 97.46h2.66c-5.32-46.73-15.94-112.15-15.94-165.55V1779h108.94v433.91h-115.62l-72.41-194.26-35.25-96.75h-2.66c5.32 49.4 15.94 112.15 15.94 165.55v125.5h-108.89V1779z" transform="translate(-335.61 -78.13)"/></g></g></g><path class="cls-4" d="M1425.39 642.88h212v212h-212zM1465.39 372.88h128v128h-128zM1153.39 594.88h172v172h-172zM1325.39 482.88h70v70h-70zM1505.39 546.88h56v56h-56zM1357.39 666.88h34v34h-34zM1545.39 270.88h64v64h-64z"/><path class="cls-4" transform="rotate(-180 1972.195 787.94)" d="M2034 721h212v212h-212z"/><path class="cls-4" transform="rotate(-180 1974.195 475.94)" d="M2078 451h128v128h-128z"/><path class="cls-4" transform="rotate(-180 2264.195 719.94)" d="M2346 673h172v172h-172z"/><path class="cls-4" transform="rotate(-180 2143.195 556.94)" d="M2276 561h70v70h-70z"/><path class="cls-4" transform="rotate(-180 1970.195 613.94)" d="M2110 625h56v56h-56z"/><path class="cls-4" transform="rotate(-180 2129.195 722.94)" d="M2280 745h34v34h-34z"/><path class="cls-4" transform="rotate(-180 1926.195 341.94)" d="M2062 349h64v64h-64z"/></svg>